<?xml version="1.0" standalone="no"?>
<svg xmlns="http://www.w3.org/2000/svg" viewBox="0 0 1440 320">

    <path fill="#0e0041" fill-opacity="1"
          d="M0,256L13.3,218.7C26.7,181,53,107,80,85.3C106.7,64,133,96,160,128C186.7,160,213,192,240,213.3C266.7,235,293,245,320,250.7C346.7,256,373,256,400,240C426.7,224,453,192,480,160C506.7,128,533,96,560,101.3C586.7,107,613,149,640,144C666.7,139,693,85,720,90.7C746.7,96,773,160,800,192C826.7,224,853,224,880,213.3C906.7,203,933,181,960,176C986.7,171,1013,181,1040,202.7C1066.7,224,1093,256,1120,240C1146.7,224,1173,160,1200,117.3C1226.7,75,1253,53,1280,80C1306.7,107,1333,181,1360,181.3C1386.7,181,1413,107,1427,69.3L1440,32L1440,0L1426.7,0C1413.3,0,1387,0,1360,0C1333.3,0,1307,0,1280,0C1253.3,0,1227,0,1200,0C1173.3,0,1147,0,1120,0C1093.3,0,1067,0,1040,0C1013.3,0,987,0,960,0C933.3,0,907,0,880,0C853.3,0,827,0,800,0C773.3,0,747,0,720,0C693.3,0,667,0,640,0C613.3,0,587,0,560,0C533.3,0,507,0,480,0C453.3,0,427,0,400,0C373.3,0,347,0,320,0C293.3,0,267,0,240,0C213.3,0,187,0,160,0C133.3,0,107,0,80,0C53.3,0,27,0,13,0L0,0Z"></path>
</svg>