<?xml version="1.0" standalone="no"?>
<svg xmlns="http://www.w3.org/2000/svg" viewBox="0 0 1440 320">
    <path fill="#341ba4" fill-opacity="1"
          d="M0,128L26.7,138.7C53.3,149,107,171,160,181.3C213.3,192,267,192,320,197.3C373.3,203,427,213,480,197.3C533.3,181,587,139,640,128C693.3,117,747,139,800,160C853.3,181,907,203,960,224C1013.3,245,1067,267,1120,266.7C1173.3,267,1227,245,1280,245.3C1333.3,245,1387,267,1413,277.3L1440,288L1440,0L1413.3,0C1386.7,0,1333,0,1280,0C1226.7,0,1173,0,1120,0C1066.7,0,1013,0,960,0C906.7,0,853,0,800,0C746.7,0,693,0,640,0C586.7,0,533,0,480,0C426.7,0,373,0,320,0C266.7,0,213,0,160,0C106.7,0,53,0,27,0L0,0Z"></path>
</svg>
