<?xml version="1.0" standalone="no"?>
<svg xmlns="http://www.w3.org/2000/svg" viewBox="0 0 1440 320">
    <path fill="#0e0041" fill-opacity="1"
          d="M0,288L26.7,266.7C53.3,245,107,203,160,192C213.3,181,267,203,320,218.7C373.3,235,427,245,480,224C533.3,203,587,149,640,149.3C693.3,149,747,203,800,224C853.3,245,907,235,960,208C1013.3,181,1067,139,1120,112C1173.3,85,1227,75,1280,58.7C1333.3,43,1387,21,1413,10.7L1440,0L1440,320L1413.3,320C1386.7,320,1333,320,1280,320C1226.7,320,1173,320,1120,320C1066.7,320,1013,320,960,320C906.7,320,853,320,800,320C746.7,320,693,320,640,320C586.7,320,533,320,480,320C426.7,320,373,320,320,320C266.7,320,213,320,160,320C106.7,320,53,320,27,320L0,320Z"/>
</svg>