<?xml version="1.0" standalone="no"?><svg xmlns="http://www.w3.org/2000/svg" viewBox="0 0 1440 320"><path fill="#252627" fill-opacity="1" d="M0,192L26.7,181.3C53.3,171,107,149,160,117.3C213.3,85,267,43,320,37.3C373.3,32,427,64,480,96C533.3,128,587,160,640,181.3C693.3,203,747,213,800,218.7C853.3,224,907,224,960,202.7C1013.3,181,1067,139,1120,149.3C1173.3,160,1227,224,1280,250.7C1333.3,277,1387,267,1413,261.3L1440,256L1440,0L1413.3,0C1386.7,0,1333,0,1280,0C1226.7,0,1173,0,1120,0C1066.7,0,1013,0,960,0C906.7,0,853,0,800,0C746.7,0,693,0,640,0C586.7,0,533,0,480,0C426.7,0,373,0,320,0C266.7,0,213,0,160,0C106.7,0,53,0,27,0L0,0Z"></path></svg>