<?xml version="1.0" standalone="no"?>
<svg xmlns="http://www.w3.org/2000/svg" viewBox="0 0 1440 320">
    <path fill="#5b1bd6" fill-opacity="1" d="M0,96L8.9,128C17.8,160,36,224,53,250.7C71.1,277,89,267,107,272C124.4,277,142,299,160,293.3C177.8,288,196,256,213,234.7C231.1,213,249,203,267,181.3C284.4,160,302,128,320,106.7C337.8,85,356,75,373,64C391.1,53,409,43,427,64C444.4,85,462,139,480,154.7C497.8,171,516,149,533,160C551.1,171,569,213,587,245.3C604.4,277,622,299,640,293.3C657.8,288,676,256,693,234.7C711.1,213,729,203,747,202.7C764.4,203,782,213,800,202.7C817.8,192,836,160,853,160C871.1,160,889,192,907,186.7C924.4,181,942,139,960,122.7C977.8,107,996,117,1013,117.3C1031.1,117,1049,107,1067,90.7C1084.4,75,1102,53,1120,37.3C1137.8,21,1156,11,1173,32C1191.1,53,1209,107,1227,154.7C1244.4,203,1262,245,1280,272C1297.8,299,1316,309,1333,282.7C1351.1,256,1369,192,1387,160C1404.4,128,1422,128,1431,128L1440,128L1440,320L1431.1,320C1422.2,320,1404,320,1387,320C1368.9,320,1351,320,1333,320C1315.6,320,1298,320,1280,320C1262.2,320,1244,320,1227,320C1208.9,320,1191,320,1173,320C1155.6,320,1138,320,1120,320C1102.2,320,1084,320,1067,320C1048.9,320,1031,320,1013,320C995.6,320,978,320,960,320C942.2,320,924,320,907,320C888.9,320,871,320,853,320C835.6,320,818,320,800,320C782.2,320,764,320,747,320C728.9,320,711,320,693,320C675.6,320,658,320,640,320C622.2,320,604,320,587,320C568.9,320,551,320,533,320C515.6,320,498,320,480,320C462.2,320,444,320,427,320C408.9,320,391,320,373,320C355.6,320,338,320,320,320C302.2,320,284,320,267,320C248.9,320,231,320,213,320C195.6,320,178,320,160,320C142.2,320,124,320,107,320C88.9,320,71,320,53,320C35.6,320,18,320,9,320L0,320Z"></path>
</svg>